<svg width="64" height="64" viewBox="0 0 64 64" fill="none" xmlns="http://www.w3.org/2000/svg">
  <rect width="64" height="64" rx="16" fill="url(#paint0_linear)"/>
  <path d="M20 42V22H26.5C30.5 22 33 24.1 33 27.5C33 30.9 30.5 33 26.5 33H23.5V42H20ZM23.5 29.9H26.3C28.1 29.9 29.1 28.9 29.1 27.5C29.1 26.1 28.1 25.1 26.3 25.1H23.5V29.9ZM36.5 42V22H43C47.1 22 49.6 24.2 49.6 27.5C49.6 30.4 47.7 32.2 45.2 32.6L50 42H46L41.8 33.4H40.4V42H36.5ZM40.4 30.5H42.9C44.9 30.5 46 29.4 46 27.6C46 25.8 44.9 24.7 42.9 24.7H40.4V30.5Z" fill="white"/>
  <defs>
    <linearGradient id="paint0_linear" x1="10" y1="10" x2="54" y2="54" gradientUnits="userSpaceOnUse">
      <stop stop-color="#1d4ed8"/>
      <stop offset="1" stop-color="#3b82f6"/>
    </linearGradient>
  </defs>
</svg>
